<?xml version="1.0" ?><!DOCTYPE svg  PUBLIC '-//W3C//DTD SVG 1.1//EN'  'http://www.w3.org/Graphics/SVG/1.1/DTD/svg11.dtd'><svg enable-background="new 0 0 128 128" id="Слой_1" version="1.1" viewBox="0 0 128 128" xml:space="preserve" xmlns="http://www.w3.org/2000/svg" xmlns:xlink="http://www.w3.org/1999/xlink"><g><g><g><g><path d="M99,124H29c-5.5,0-10-4.5-10-10V19c0-5.5,4.5-10,10-10h70c5.5,0,10,4.5,10,10v95      C109,119.5,104.5,124,99,124z" fill="#F0D6BF"/></g></g></g><g><g><g><path d="M99,125.5H29c-6.3,0-11.5-5.2-11.5-11.5V19c0-6.3,5.2-11.5,11.5-11.5h70c6.3,0,11.5,5.2,11.5,11.5v95      C110.5,120.3,105.3,125.5,99,125.5z M29,10.5c-4.7,0-8.5,3.8-8.5,8.5v95c0,4.7,3.8,8.5,8.5,8.5h70c4.7,0,8.5-3.8,8.5-8.5V19      c0-4.7-3.8-8.5-8.5-8.5H29z" fill="#62355C"/></g></g></g><g><g><g><rect fill="#FFFFFF" height="100" width="70" x="29" y="14"/></g></g></g><g><g><g><g><g><circle cx="63.9" cy="39" fill="#FFFFFF" r="5"/></g></g></g><g><g><g><circle cx="83.9" cy="39" fill="#FFFFFF" r="5"/></g></g></g><g><g><g><circle cx="43.9" cy="84" fill="#FFFFFF" r="5"/></g></g></g></g><g><g><g><g><path d="M63.9,45.5c-3.6,0-6.5-2.9-6.5-6.5s2.9-6.5,6.5-6.5c3.6,0,6.5,2.9,6.5,6.5S67.5,45.5,63.9,45.5z         M63.9,35.5c-1.9,0-3.5,1.6-3.5,3.5s1.6,3.5,3.5,3.5c1.9,0,3.5-1.6,3.5-3.5S65.8,35.5,63.9,35.5z" fill="#62355C"/></g></g></g><g><g><g><path d="M83.9,45.5c-3.6,0-6.5-2.9-6.5-6.5s2.9-6.5,6.5-6.5s6.5,2.9,6.5,6.5S87.5,45.5,83.9,45.5z M83.9,35.5        c-1.9,0-3.5,1.6-3.5,3.5s1.6,3.5,3.5,3.5s3.5-1.6,3.5-3.5S85.8,35.5,83.9,35.5z" fill="#62355C"/></g></g></g><g><g><g><path d="M43.9,90.5c-3.6,0-6.5-2.9-6.5-6.5s2.9-6.5,6.5-6.5s6.5,2.9,6.5,6.5S47.5,90.5,43.9,90.5z M43.9,80.5        c-1.9,0-3.5,1.6-3.5,3.5s1.6,3.5,3.5,3.5s3.5-1.6,3.5-3.5S45.8,80.5,43.9,80.5z" fill="#62355C"/></g></g></g></g><g><g><g><g><path d="M79.1,100.5c-0.4,0-0.8-0.1-1.1-0.4c-0.6-0.6-0.6-1.5,0-2.1l10-10c0.6-0.6,1.5-0.6,2.1,0        c0.6,0.6,0.6,1.5,0,2.1l-10,10C79.9,100.4,79.5,100.5,79.1,100.5z" fill="#62355C"/></g></g></g><g><g><g><path d="M89.1,100.5c-0.4,0-0.8-0.1-1.1-0.4l-10-10c-0.6-0.6-0.6-1.5,0-2.1c0.6-0.6,1.5-0.6,2.1,0l10,10        c0.6,0.6,0.6,1.5,0,2.1C89.9,100.4,89.5,100.5,89.1,100.5z" fill="#62355C"/></g></g></g></g><g><g><g><g><path d="M59.1,70.5c-0.4,0-0.8-0.1-1.1-0.4c-0.6-0.6-0.6-1.5,0-2.1l10-10c0.6-0.6,1.5-0.6,2.1,0        c0.6,0.6,0.6,1.5,0,2.1l-10,10C59.9,70.4,59.5,70.5,59.1,70.5z" fill="#62355C"/></g></g></g><g><g><g><path d="M69.1,70.5c-0.4,0-0.8-0.1-1.1-0.4l-10-10c-0.6-0.6-0.6-1.5,0-2.1c0.6-0.6,1.5-0.6,2.1,0l10,10        c0.6,0.6,0.6,1.5,0,2.1C69.9,70.4,69.5,70.5,69.1,70.5z" fill="#62355C"/></g></g></g></g><g><g><g><g><path d="M39.1,70.5c-0.4,0-0.8-0.1-1.1-0.4c-0.6-0.6-0.6-1.5,0-2.1l10-10c0.6-0.6,1.5-0.6,2.1,0s0.6,1.5,0,2.1        l-10,10C39.9,70.4,39.5,70.5,39.1,70.5z" fill="#62355C"/></g></g></g><g><g><g><path d="M49.1,70.5c-0.4,0-0.8-0.1-1.1-0.4l-10-10c-0.6-0.6-0.6-1.5,0-2.1s1.5-0.6,2.1,0l10,10        c0.6,0.6,0.6,1.5,0,2.1C49.9,70.4,49.5,70.5,49.1,70.5z" fill="#62355C"/></g></g></g></g><g><g><g><path d="M57.2,85.5c-0.8,0-1.5-0.7-1.5-1.5s0.7-1.5,1.5-1.5c13.9,0,25.2-11.3,25.2-25.2c0-0.8,0.7-1.5,1.5-1.5       s1.5,0.7,1.5,1.5C85.4,72.9,72.8,85.5,57.2,85.5z" fill="#62355C"/></g></g></g></g><g><g><g><path d="M99,115.5H29c-0.8,0-1.5-0.7-1.5-1.5V14c0-0.8,0.7-1.5,1.5-1.5h70c0.8,0,1.5,0.7,1.5,1.5v100      C100.5,114.8,99.8,115.5,99,115.5z M30.5,112.5h67v-97h-67V112.5z" fill="#62355C"/></g></g></g><g><g><g><rect fill="#EAE6EC" height="10" width="40" x="44.8" y="9"/></g></g></g><g><g><g><path d="M84.8,20.5h-40c-0.8,0-1.5-0.7-1.5-1.5V9c0-0.8,0.7-1.5,1.5-1.5h40c0.8,0,1.5,0.7,1.5,1.5v10      C86.3,19.8,85.7,20.5,84.8,20.5z M46.3,17.5h37v-7h-37V17.5z" fill="#62355C"/></g></g></g></g></svg>