<?xml version="1.0" encoding="UTF-8" standalone="no"?>
<svg
   xmlns:dc="http://purl.org/dc/elements/1.1/"
   xmlns:cc="http://creativecommons.org/ns#"
   xmlns:rdf="http://www.w3.org/1999/02/22-rdf-syntax-ns#"
   xmlns:svg="http://www.w3.org/2000/svg"
   xmlns="http://www.w3.org/2000/svg"
   id="svg5088"
   version="1.1"
   viewBox="0 0 15.686163 15.279737"
   height="15.279739mm"
   width="15.686165mm">
  <defs
     id="defs5082">
    <clipPath
       id="clipPath26"
       clipPathUnits="userSpaceOnUse">
      <path
         id="path24"
         d="m 46.87,357.72 h 57.62 v -61.3 H 46.87 Z" />
    </clipPath>
    <clipPath
       id="clipPath68"
       clipPathUnits="userSpaceOnUse">
      <path
         id="path66"
         d="m 134.76,353.97 h 53.44 v -53.8 h -53.44 z" />
    </clipPath>
    <clipPath
       id="clipPath92"
       clipPathUnits="userSpaceOnUse">
      <path
         id="path90"
         d="m 223.45,354.72 h 47.18 v -55.29 h -47.18 z" />
    </clipPath>
    <clipPath
       id="clipPath340"
       clipPathUnits="userSpaceOnUse">
      <path
         id="path338"
         d="m 297.63,333.83 h 56.08 V 295.5 h -56.08 z" />
    </clipPath>
    <clipPath
       id="clipPath220"
       clipPathUnits="userSpaceOnUse">
      <path
         id="path218"
         d="M 378.05,353.71 H 427.8 V 300.43 H 378.05 Z" />
    </clipPath>
    <clipPath
       id="clipPath1224"
       clipPathUnits="userSpaceOnUse">
      <path
         id="path1222"
         d="m 450.12,353.2 h 52.25 v -52.25 h -52.25 z" />
    </clipPath>
    <clipPath
       id="clipPath904"
       clipPathUnits="userSpaceOnUse">
      <path
         id="path902"
         d="m 520.935,347.63 h 55.64 v -41.12 h -55.64 z" />
    </clipPath>
    <clipPath
       id="clipPath1512"
       clipPathUnits="userSpaceOnUse">
      <path
         id="path1510"
         d="m 590.789,353.968 h 54.478 v -53.795 h -54.478 z" />
    </clipPath>
    <clipPath
       id="clipPath384"
       clipPathUnits="userSpaceOnUse">
      <path
         id="path382"
         d="M 46.97,277.28 H 104.4 V 231.61 H 46.97 Z" />
    </clipPath>
    <clipPath
       id="clipPath312"
       clipPathUnits="userSpaceOnUse">
      <path
         id="path310"
         d="m 127.4,282.06 h 68.16 V 240.85 H 127.4 Z" />
    </clipPath>
    <clipPath
       id="clipPath544"
       clipPathUnits="userSpaceOnUse">
      <path
         id="path542"
         d="m 208.18,291.795 h 77.715 V 231.114 H 208.18 Z" />
    </clipPath>
    <clipPath
       id="clipPath144"
       clipPathUnits="userSpaceOnUse">
      <path
         id="path142"
         d="m 309.62,285.63 h 32.112 V 237.28 H 309.62 Z" />
    </clipPath>
    <clipPath
       id="clipPath988"
       clipPathUnits="userSpaceOnUse">
      <path
         id="path986"
         d="m 381.1,282.73 h 43.66 V 240.17 H 381.1 Z" />
    </clipPath>
    <clipPath
       id="clipPath790"
       clipPathUnits="userSpaceOnUse">
      <path
         id="path788"
         d="m 453.3,278.98 h 46.82 V 242.6 H 453.3 Z" />
    </clipPath>
    <clipPath
       id="clipPath1144"
       clipPathUnits="userSpaceOnUse">
      <path
         id="path1142"
         d="m 523.77,273.9 h 51.05 v -26.22 h -51.05 z" />
    </clipPath>
    <clipPath
       id="clipPath1390"
       clipPathUnits="userSpaceOnUse">
      <path
         id="path1388"
         d="m 595.56,285.6 h 44.93 v -45.9 h -44.93 z" />
    </clipPath>
    <clipPath
       id="clipPath1052"
       clipPathUnits="userSpaceOnUse">
      <path
         id="path1050"
         d="M 54.2225,216.55 H 97.1436 V 173.66 H 54.2225 Z" />
    </clipPath>
    <clipPath
       id="clipPath762"
       clipPathUnits="userSpaceOnUse">
      <path
         id="path760"
         d="M 133.67,214.23 H 189.3 V 175.98 H 133.67 Z" />
    </clipPath>
    <clipPath
       id="clipPath276"
       clipPathUnits="userSpaceOnUse">
      <path
         id="path274"
         d="m 230.14,218.955 h 33.8 V 165.25 h -33.8 z" />
    </clipPath>
    <clipPath
       id="clipPath628"
       clipPathUnits="userSpaceOnUse">
      <path
         id="path626"
         d="m 297.63,227.63 h 56.09 v -71.05 h -56.09 z" />
    </clipPath>
    <clipPath
       id="clipPath420"
       clipPathUnits="userSpaceOnUse">
      <path
         id="path418"
         d="m 378.62,220.24 h 48.61 v -54.37 h -48.61 z" />
    </clipPath>
    <clipPath
       id="clipPath1072"
       clipPathUnits="userSpaceOnUse">
      <path
         id="path1070"
         d="m 447.51,212.1 h 58.4 v -44.61 h -58.4 z" />
    </clipPath>
    <clipPath
       id="clipPath1188"
       clipPathUnits="userSpaceOnUse">
      <path
         id="path1186"
         d="m 533.95,216.9 h 30.68 v -46.91 h -30.68 z" />
    </clipPath>
    <clipPath
       id="clipPath1478"
       clipPathUnits="userSpaceOnUse">
      <path
         id="path1476"
         d="M 593.15,205.25 H 642.9 V 175.81 H 593.15 Z" />
    </clipPath>
    <clipPath
       id="clipPath696"
       clipPathUnits="userSpaceOnUse">
      <path
         id="path694"
         d="m 41.9,158.92 h 63.56 V 108.56 H 41.9 Z" />
    </clipPath>
    <clipPath
       id="clipPath834"
       clipPathUnits="userSpaceOnUse">
      <path
         id="path832"
         d="m 128.24,150.16 h 66.48 v -41.6 h -66.48 z" />
    </clipPath>
    <clipPath
       id="clipPath870"
       clipPathUnits="userSpaceOnUse">
      <path
         id="path868"
         d="m 222.85,145.194 h 48.38 V 108.56 h -48.38 z" />
    </clipPath>
    <clipPath
       id="clipPath946"
       clipPathUnits="userSpaceOnUse">
      <path
         id="path944"
         d="M 303.15,145.89 H 348.2 V 108.56 H 303.15 Z" />
    </clipPath>
    <clipPath
       id="clipPath1016"
       clipPathUnits="userSpaceOnUse">
      <path
         id="path1014"
         d="M 389.46,153.23 H 416.4 V 108.56 H 389.46 Z" />
    </clipPath>
    <clipPath
       id="clipPath1108"
       clipPathUnits="userSpaceOnUse">
      <path
         id="path1106"
         d="m 456.76,146.16 h 39.89 v -37.63 h -39.89 z" />
    </clipPath>
    <clipPath
       id="clipPath1354"
       clipPathUnits="userSpaceOnUse">
      <path
         id="path1352"
         d="m 530.46,152.62 h 37.66 v -37.38 h -37.66 z" />
    </clipPath>
    <clipPath
       id="clipPath1560"
       clipPathUnits="userSpaceOnUse">
      <path
         id="path1558"
         d="m 589.99,163.3 h 56.08 v -56.08 h -56.08 z" />
    </clipPath>
    <clipPath
       id="clipPath1708"
       clipPathUnits="userSpaceOnUse">
      <path
         id="path1706"
         d="m 59.82,92.37 h 35.1 v -46.8 h -35.1 z" />
    </clipPath>
    <clipPath
       id="clipPath1790"
       clipPathUnits="userSpaceOnUse">
      <path
         id="path1788"
         d="m 128.43,93.72 h 59.54 V 44.23 h -59.54 z" />
    </clipPath>
    <clipPath
       id="clipPath1906"
       clipPathUnits="userSpaceOnUse">
      <path
         id="path1904"
         d="m 221.48,89.86 h 41.77 V 48.08 h -41.77 z" />
    </clipPath>
    <clipPath
       id="clipPath1978"
       clipPathUnits="userSpaceOnUse">
      <path
         id="path1976"
         d="m 296.76,84.91 h 51.79 V 53.03 h -51.79 z" />
    </clipPath>
    <clipPath
       id="clipPath2102"
       clipPathUnits="userSpaceOnUse">
      <path
         id="path2100"
         d="m 382.06,94.1 h 29.53 V 43.85 h -29.53 z" />
    </clipPath>
    <clipPath
       id="clipPath2160"
       clipPathUnits="userSpaceOnUse">
      <path
         id="path2158"
         d="m 445.1,86.8 h 36.801 V 51.1522 H 445.1 Z" />
    </clipPath>
  </defs>
  <metadata
     id="metadata5085">
    <rdf:RDF>
      <cc:Work
         rdf:about="">
        <dc:format>image/svg+xml</dc:format>
        <dc:type
           rdf:resource="http://purl.org/dc/dcmitype/StillImage" />
        <dc:title></dc:title>
      </cc:Work>
    </rdf:RDF>
  </metadata>
  <g
     transform="translate(-125.82662,-95.338498)"
     id="layer1">
    <g
       id="g11117"
       transform="matrix(0.35277777,0,0,-0.35277777,-29.841772,127.31221)">
      <g
         id="g2154">
        <g
           id="g2156" />
        <g
           id="g2172">
          <g
             clip-path="url(#clipPath2160)"
             id="g2170">
            <g
               transform="translate(458.5498,82)"
               id="g2164">
              <path
                 d="m 0,0 c 4.78,0 8.65,-3.88 8.65,-8.66 0,-4.78 -3.87,-8.65 -8.65,-8.65 -4.78,0 -8.649,3.87 -8.649,8.65 C -8.649,-3.88 -4.78,0 0,0"
                 style="fill:#ffbb00;fill-opacity:1;fill-rule:nonzero;stroke:none"
                 id="path2162" />
            </g>
            <g
               transform="translate(467.2002,73.3398)"
               id="g2168">
              <path
                 d="m 0,0 c 0,4.78 -3.87,8.66 -8.65,8.66 -4.781,0 -8.65,-3.88 -8.65,-8.66 0,-4.78 3.869,-8.649 8.65,-8.649 C -3.87,-8.649 0,-4.78 0,0 m 13.99,-17.32 c 1.06,-1.24 0.92,-3.1 -0.32,-4.159 -1.231,-1.061 -3.101,-0.911 -4.16,0.319 l -10.49,9.99 c -0.02,0.021 -0.041,0.061 -0.06,0.08 -2.16,-1.48 -4.78,-2.36 -7.61,-2.36 -7.43,0 -13.451,6.02 -13.451,13.45 0,7.43 6.021,13.46 13.451,13.46 C -1.22,13.46 4.8,7.43 4.8,0 c 0,-2.5 -0.68,-4.84 -1.87,-6.84 0.2,-0.139 0.4,-0.3 0.57,-0.49 z"
                 style="fill:#00607f;fill-opacity:1;fill-rule:nonzero;stroke:none"
                 id="path2166" />
            </g>
          </g>
        </g>
      </g>
      <g
         id="g2174"
         transform="translate(481.1904,56.0195)">
        <path
           d="m 0,0 -10.49,9.99 c -0.17,0.191 -0.37,0.351 -0.571,0.49 1.191,2 1.871,4.34 1.871,6.84 0,7.43 -6.02,13.46 -13.451,13.46 -7.429,0 -13.45,-6.03 -13.45,-13.46 0,-7.429 6.021,-13.45 13.45,-13.45 2.83,0 5.451,0.88 7.611,2.36 0.019,-0.019 0.04,-0.059 0.059,-0.08 L -4.48,-3.84 c 1.059,-1.229 2.929,-1.38 4.16,-0.319 C 0.92,-3.1 1.06,-1.239 0,0 Z"
           style="fill:none;stroke:#141414;stroke-width:2;stroke-linecap:round;stroke-linejoin:round;stroke-miterlimit:10;stroke-dasharray:none;stroke-opacity:1"
           id="path2176" />
      </g>
      <g
         id="g2178"
         transform="translate(458.5498,64.6904)">
        <path
           d="m 0,0 c -4.78,0 -8.649,3.869 -8.649,8.649 0,4.781 3.869,8.661 8.649,8.661 4.78,0 8.65,-3.88 8.65,-8.661 C 8.65,3.869 4.78,0 0,0 Z"
           style="fill:none;stroke:#141414;stroke-width:2;stroke-linecap:round;stroke-linejoin:round;stroke-miterlimit:10;stroke-dasharray:none;stroke-opacity:1"
           id="path2180" />
      </g>
    </g>
  </g>
</svg>
